<svg xmlns="http://www.w3.org/2000/svg" fill="none" aria-hidden="true" viewBox="0 0 24 24" role="img"><path fill="var(--icon-color, #001e00)" fill-rule="evenodd" d="M8.471 17.265h.784v2.614c0 .598.55 1.12 1.176 1.12.628 0 1.177-.522 1.177-1.12v-2.614h1.568v2.614c0 .598.549 1.12 1.176 1.12.628 0 1.177-.522 1.177-1.12v-2.614h.784c.47 0 .784-.299.784-.747l-.001-7.687H7.688l-.001 7.687c0 .448.314.747.784.747zM6.008 8.633C5.471 8.633 5 9.197 5 9.843v5.645c0 .646.47 1.21 1.008 1.21s1.008-.564 1.008-1.21V9.842c0-.645-.47-1.21-1.008-1.21zm11.764 1.21v5.645c0 .646.47 1.21 1.008 1.21s1.008-.564 1.008-1.21V9.842c0-.645-.47-1.21-1.008-1.21s-1.008.565-1.008 1.21zm-1.616-6.189a.35.35 0 000-.523.392.392 0 00-.549 0l-1.176 1.12c-.55-.373-1.255-.522-2.04-.522-.783 0-1.489.15-2.116.448l-1.098-1.12a.906.906 0 00-.627-.001.79.79 0 000 .598l1.019.972c-1.098.822-1.882 2.092-1.882 3.558h9.41a4.252 4.252 0 00-1.96-3.558l1.019-.972zm-5.02 3.282H9.801V5.592h1.335v1.344zm2.553 0V5.592h1.334v1.344H13.69z" clip-rule="evenodd"></path></svg>