<svg xmlns="http://www.w3.org/2000/svg" fill="none" aria-hidden="true" viewBox="0 0 20 18" role="img"><path fill="var(--icon-color, #001e00)" d="M17.083 5.99a2.85 2.85 0 00-1.777.622c-1.34-.853-3.03-1.39-4.88-1.46v-.009c0-1.275.922-2.334 2.117-2.508.216.946 1.041 1.65 2.026 1.65 1.15 0 2.082-.96 2.082-2.143S15.72 0 14.57 0c-1.005 0-1.844.733-2.039 1.708-1.684.186-2.999 1.656-2.999 3.436v.011c-1.83.08-3.503.616-4.83 1.463a2.85 2.85 0 00-1.783-.627C1.306 5.991 0 7.335 0 8.993c0 1.203.687 2.24 1.68 2.719C1.776 15.197 5.467 18 10.007 18s8.235-2.806 8.327-6.294A3.01 3.01 0 0020 8.994c0-1.658-1.306-3.002-2.918-3.002z"></path></svg>