<svg width="77" height="24" viewBox="0 0 77 24" fill="none" xmlns="http://www.w3.org/2000/svg">
<g id="logo-airbnb-grey" clip-path="url(#clip0_7484_2117)">
<path id="Vector" d="M22.115 17.0331C22.0081 16.731 21.8831 16.4387 21.7643 16.1679C21.5813 15.7513 21.3896 15.3339 21.2043 14.9305L21.1896 14.8985C19.5363 11.2947 17.7617 7.64156 15.9154 4.04075L15.837 3.88786C15.6487 3.52016 15.454 3.13996 15.2541 2.76638C15.0172 2.29361 14.7296 1.84819 14.3967 1.438C14.0218 0.987871 13.5532 0.625855 13.024 0.377479C12.4947 0.129103 11.9176 0.000414484 11.3335 0.000488313C10.7493 0.000562142 10.1723 0.129396 9.64309 0.377906C9.11392 0.626417 8.6454 0.988553 8.27069 1.43877C7.93808 1.84906 7.65072 2.29439 7.4137 2.76692C7.21214 3.14385 7.01561 3.52757 6.82557 3.89867L6.75279 4.04071C4.90636 7.64179 3.13185 11.2949 1.47857 14.8984L1.45448 14.9508C1.27232 15.3477 1.08398 15.7581 0.904038 16.1677C0.785133 16.4383 0.660343 16.7304 0.553307 17.0332C0.246737 17.8583 0.149047 18.747 0.269018 19.6194C0.396245 20.501 0.750499 21.334 1.29669 22.0358C1.84289 22.7376 2.56208 23.2838 3.38303 23.6204C4.00311 23.8729 4.66612 24.002 5.3352 24.0005C5.54538 24.0004 5.75538 23.9881 5.96414 23.9637C6.81037 23.8551 7.62653 23.5779 8.36472 23.1484C9.33305 22.6008 10.2894 21.7983 11.3341 20.6516C12.3788 21.7983 13.3351 22.6008 14.3035 23.1484C15.0416 23.578 15.8578 23.8551 16.704 23.9637C16.9128 23.9881 17.1228 24.0004 17.333 24.0005C18.002 24.002 18.665 23.8729 19.285 23.6204C20.106 23.2838 20.8252 22.7376 21.3715 22.0358C21.9177 21.334 22.272 20.5011 22.3992 19.6194C22.5191 18.7469 22.4214 17.8582 22.115 17.0331ZM11.3341 18.2832C10.0408 16.6332 9.21093 15.1008 8.91975 13.8162C8.80046 13.3349 8.77229 12.8353 8.83674 12.3435C8.88763 11.9829 9.01922 11.6387 9.22159 11.3366C9.4706 11.0115 9.79062 10.7483 10.1569 10.5672C10.5232 10.3861 10.926 10.2919 11.3342 10.2919C11.7425 10.292 12.1453 10.3862 12.5116 10.5674C12.8779 10.7485 13.1978 11.0118 13.4468 11.3368C13.6492 11.6391 13.7808 11.9833 13.8317 12.3439C13.896 12.836 13.8677 13.3357 13.7482 13.8172C13.4567 15.1017 12.6271 16.6335 11.3341 18.2832ZM20.8887 19.4022C20.7997 20.0186 20.552 20.601 20.1701 21.0917C19.7882 21.5824 19.2853 21.9644 18.7113 22.1997C18.1309 22.4338 17.501 22.5168 16.8801 22.4409C16.2348 22.3572 15.6129 22.1434 15.0518 21.8123C14.1899 21.3249 13.3174 20.5766 12.3356 19.4789C13.8986 17.5389 14.8746 15.7509 15.2359 14.1582C15.3986 13.4885 15.4338 12.7939 15.3399 12.1111C15.2546 11.5229 15.0377 10.9617 14.7054 10.47C14.316 9.93941 13.8082 9.50809 13.2227 9.21086C12.6371 8.91364 11.9903 8.75876 11.3342 8.75876C10.6783 8.75876 10.0314 8.91356 9.44579 9.21071C8.86021 9.50786 8.35235 9.93911 7.96304 10.4697C7.63078 10.9613 7.41384 11.5223 7.32852 12.1104C7.23451 12.7929 7.26958 13.4871 7.43187 14.1567C7.79301 15.75 8.76909 17.5385 10.3326 19.479C9.35079 20.5766 8.47828 21.3249 7.61634 21.8124C7.05527 22.1434 6.43341 22.3572 5.78806 22.4409C5.16717 22.5168 4.53727 22.4338 3.9568 22.1997C3.38278 21.9644 2.87992 21.5824 2.49803 21.0918C2.11615 20.601 1.86848 20.0186 1.77956 19.4022C1.69403 18.7755 1.76681 18.1374 1.99122 17.5464C2.07651 17.3051 2.17633 17.0682 2.3 16.7868C2.47495 16.3887 2.6606 15.9841 2.84019 15.5928L2.86431 15.5403C4.50834 11.9569 6.27302 8.32414 8.10938 4.74269L8.18247 4.60011C8.36942 4.235 8.56277 3.85749 8.75784 3.49271C8.94441 3.11675 9.17025 2.76177 9.43155 2.43379C9.66306 2.15226 9.95364 1.9256 10.2825 1.76999C10.6113 1.61438 10.9703 1.53368 11.3338 1.53365C11.6972 1.53362 12.0563 1.61427 12.3851 1.76982C12.714 1.92537 13.0046 2.15199 13.2362 2.43348C13.4976 2.76122 13.7235 3.11607 13.91 3.49202C14.1032 3.85355 14.2949 4.22766 14.4803 4.58942L14.5588 4.74285C16.3951 8.32391 18.1597 11.9566 19.8039 15.5406L19.8187 15.5728C20.0014 15.9707 20.1903 16.3819 20.3682 16.787C20.492 17.0688 20.592 17.3058 20.6771 17.5463C20.9014 18.1373 20.9742 18.7755 20.8887 19.4022Z" fill="#8D8C8C"/>
<path id="Vector_2" d="M31.2783 18.0902C30.6829 18.0902 30.1352 17.97 29.635 17.7298C29.1349 17.4896 28.7062 17.1532 28.3251 16.7208C27.944 16.2884 27.6583 15.7839 27.4439 15.2313C27.2296 14.6547 27.1343 14.0301 27.1343 13.3575C27.1343 12.6848 27.2534 12.0361 27.4677 11.4595C27.6821 10.883 27.9917 10.3785 28.3728 9.92201C28.7538 9.48956 29.2063 9.12919 29.7303 8.88896C30.2542 8.64874 30.802 8.52859 31.4212 8.52859C32.0166 8.52859 32.5406 8.64874 33.0169 8.91296C33.4932 9.15326 33.8743 9.51356 34.1839 9.97001L34.2553 8.79289H36.4464V17.8499H34.2553L34.1839 16.5286C33.8743 17.0091 33.4694 17.3934 32.9454 17.6817C32.4691 17.946 31.8975 18.0902 31.2783 18.0902ZM31.8499 15.928C32.2786 15.928 32.6596 15.8079 33.0169 15.5916C33.3503 15.3514 33.6123 15.0391 33.8267 14.6547C34.0172 14.2704 34.1124 13.8139 34.1124 13.3094C34.1124 12.8049 34.0172 12.3484 33.8267 11.964C33.6362 11.5797 33.3503 11.2674 33.0169 11.0271C32.6835 10.7868 32.2786 10.6908 31.8499 10.6908C31.4212 10.6908 31.0402 10.8109 30.6829 11.0271C30.3495 11.2674 30.0875 11.5797 29.8732 11.964C29.6827 12.3484 29.5874 12.8049 29.5874 13.3094C29.5874 13.8139 29.6827 14.2704 29.8732 14.6547C30.0637 15.0391 30.3495 15.3514 30.6829 15.5916C31.0402 15.8079 31.4212 15.928 31.8499 15.928ZM40.1856 6.34241C40.1856 6.60668 40.138 6.84692 40.0188 7.03911C39.8997 7.23131 39.7331 7.39947 39.5187 7.51961C39.3043 7.63969 39.0662 7.68776 38.8281 7.68776C38.5899 7.68776 38.3517 7.63969 38.1374 7.51961C37.923 7.39947 37.7563 7.23131 37.6373 7.03911C37.5181 6.82289 37.4705 6.60668 37.4705 6.34241C37.4705 6.07815 37.5181 5.83791 37.6373 5.64572C37.7563 5.4295 37.923 5.28536 38.1374 5.16524C38.3517 5.04512 38.5899 4.99707 38.8281 4.99707C39.0662 4.99707 39.3043 5.04512 39.5187 5.16524C39.7331 5.28536 39.8997 5.45353 40.0188 5.64572C40.1141 5.83791 40.1856 6.05413 40.1856 6.34241ZM37.6373 17.8259V8.76881H40.0188V17.8259H37.6373ZM46.3778 11.1472V11.1712C46.2587 11.1232 46.1158 11.0991 45.9967 11.0751C45.8538 11.0511 45.7347 11.0511 45.5918 11.0511C44.925 11.0511 44.4248 11.2433 44.0914 11.6517C43.7342 12.0601 43.5674 12.6367 43.5674 13.3815V17.8259H41.1859V8.76881H43.3769L43.4483 10.1382C43.6866 9.65771 43.9723 9.29734 44.3772 9.03311C44.7582 8.76881 45.2107 8.64874 45.7347 8.64874C45.9014 8.64874 46.0681 8.67274 46.211 8.69674C46.2825 8.72081 46.3301 8.72081 46.3778 8.74481V11.1472ZM47.3304 17.8259V5.04512H49.712V9.92201C50.0454 9.48956 50.4265 9.15319 50.9028 8.88896C51.3792 8.64874 51.9031 8.50459 52.4985 8.50459C53.0939 8.50459 53.6417 8.62466 54.1418 8.86496C54.642 9.10519 55.0706 9.44149 55.4517 9.87394C55.8328 10.3064 56.1185 10.8109 56.3329 11.3634C56.5472 11.94 56.6425 12.5646 56.6425 13.2373C56.6425 13.91 56.5234 14.5587 56.3091 15.1352C56.0948 15.7118 55.7852 16.2163 55.404 16.6728C55.023 17.1052 54.5705 17.4655 54.0466 17.7058C53.5226 17.946 52.9748 18.0661 52.3556 18.0661C51.7602 18.0661 51.2363 17.946 50.7599 17.6817C50.2836 17.4415 49.9025 17.0811 49.5929 16.6247L49.5215 17.8019L47.3304 17.8259ZM51.9269 15.928C52.3556 15.928 52.7367 15.8079 53.0939 15.5916C53.4273 15.3514 53.6893 15.0391 53.9036 14.6547C54.0942 14.2704 54.1895 13.8139 54.1895 13.3094C54.1895 12.8049 54.0942 12.3484 53.9036 11.964C53.6893 11.5797 53.4273 11.2674 53.0939 11.0271C52.7605 10.7868 52.3556 10.6908 51.9269 10.6908C51.4982 10.6908 51.1172 10.8109 50.7599 11.0271C50.4265 11.2674 50.1645 11.5797 49.9501 11.964C49.7596 12.3484 49.6644 12.8049 49.6644 13.3094C49.6644 13.8139 49.7596 14.2704 49.9501 14.6547C50.1407 15.0391 50.4265 15.3514 50.7599 15.5916C51.1172 15.8079 51.4982 15.928 51.9269 15.928ZM57.5475 17.8259V8.76881H59.7386L59.81 9.94601C60.072 9.51356 60.4293 9.17726 60.8818 8.91296C61.3343 8.64874 61.8582 8.52859 62.4536 8.52859C63.1205 8.52859 63.6921 8.69674 64.1684 9.00911C64.6685 9.32141 65.0496 9.77786 65.3116 10.3545C65.5736 10.931 65.7164 11.6277 65.7164 12.4205V17.8499H63.3349V12.7328C63.3349 12.1082 63.192 11.6037 62.9061 11.2433C62.6204 10.883 62.2393 10.6908 61.7392 10.6908C61.3819 10.6908 61.0723 10.7628 60.7865 10.931C60.5245 11.0991 60.3102 11.3154 60.1435 11.6277C59.9768 11.916 59.9053 12.2763 59.9053 12.6367V17.8259H57.5475ZM66.9072 17.8259V5.04512H69.2889V9.92201C69.6223 9.48956 70.0033 9.15319 70.4797 8.88896C70.956 8.64874 71.48 8.50459 72.0754 8.50459C72.6708 8.50459 73.2185 8.62466 73.7187 8.86496C74.2188 9.10519 74.6475 9.44149 75.0284 9.87394C75.4099 10.3064 75.6953 10.8109 75.9099 11.3634C76.1245 11.94 76.2191 12.5646 76.2191 13.2373C76.2191 13.91 76.1006 14.5587 75.886 15.1352C75.6715 15.7118 75.3622 16.2163 74.9808 16.6728C74.5999 17.1052 74.1474 17.4655 73.6234 17.7058C73.0994 17.946 72.5517 18.0661 71.9325 18.0661C71.3371 18.0661 70.8131 17.946 70.3368 17.6817C69.8604 17.4415 69.4794 17.0811 69.1698 16.6247L69.0984 17.8019L66.9072 17.8259ZM71.5276 15.928C71.9562 15.928 72.3374 15.8079 72.6946 15.5916C73.028 15.3514 73.29 15.0391 73.5043 14.6547C73.6949 14.2704 73.7902 13.8139 73.7902 13.3094C73.7902 12.8049 73.6949 12.3484 73.5043 11.964C73.3138 11.5797 73.028 11.2674 72.6946 11.0271C72.3611 10.7868 71.9562 10.6908 71.5276 10.6908C71.0989 10.6908 70.7178 10.8109 70.3606 11.0271C70.0272 11.2674 69.7652 11.5797 69.5508 11.964C69.3365 12.3484 69.265 12.8049 69.265 13.3094C69.265 13.8139 69.3603 14.2704 69.5508 14.6547C69.7414 15.0391 70.0272 15.3514 70.3606 15.5916C70.7178 15.8079 71.0751 15.928 71.5276 15.928Z" fill="#8D8C8C"/>
</g>
<defs>
<clipPath id="clip0_7484_2117">
<rect width="76" height="24" fill="white" transform="translate(0.219238)"/>
</clipPath>
</defs>
</svg>
