<svg width="34" height="24" viewBox="0 0 34 24" fill="none" xmlns="http://www.w3.org/2000/svg">
<g id="logo-bissell-grey" clip-path="url(#clip0_7484_2120)">
<g id="Group">
<path id="Vector" d="M32.3624 10.085C32.4702 10.085 32.5334 10.0994 32.5334 10.1928C32.5305 10.2589 32.4874 10.2848 32.4026 10.2862H32.1713L32.1728 10.0836H32.3624V10.085ZM32.1728 10.4357H32.3049L32.4845 10.7619L32.6986 10.7605L32.5032 10.4156C32.6411 10.4041 32.7216 10.3437 32.7216 10.1885C32.7216 10.0031 32.6153 9.93988 32.4457 9.93413L31.9817 9.93557V10.7619L32.1713 10.7605L32.1728 10.4357ZM32.3308 9.76742C32.6756 9.76742 32.9113 9.99449 32.9127 10.3351C32.9127 10.68 32.6756 10.9229 32.3337 10.9229C31.9903 10.9243 31.7633 10.6886 31.7618 10.3466C31.7604 10.0031 31.986 9.76742 32.3308 9.76742ZM32.3351 9.58204C31.7934 9.58347 31.5679 9.99305 31.5679 10.348C31.5707 10.7102 31.7992 11.1097 32.3365 11.1097C32.7963 11.1083 33.1038 10.7634 33.1038 10.3451C33.1024 9.94707 32.8365 9.5806 32.3351 9.58204Z" fill="#A9A9A9"/>
</g>
<path id="Vector_2" d="M7.90869 11.3467L8.79662 11.3452L8.80524 15.5431L7.913 15.5459L7.90869 11.3467Z" fill="#A9A9A9"/>
<path id="Vector_3" d="M7.90771 9.63962L8.79565 9.63818L8.79852 10.9675L7.90771 10.969V9.63962Z" fill="#A9A9A9"/>
<path id="Vector_4" d="M28.395 9.61032L29.2829 9.60889L29.293 15.514L28.3993 15.5155L28.395 9.61032Z" fill="#A9A9A9"/>
<path id="Vector_5" d="M30.7956 9.60735L29.9077 9.60889L29.9179 15.514L30.8059 15.5125L30.7956 9.60735Z" fill="#A9A9A9"/>
<path id="Vector_6" d="M5.55913 13.0176C5.86947 13.0176 6.12091 12.8049 6.11516 12.5003C6.11516 12.1956 5.8666 11.9843 5.55625 11.9858L1.97723 11.9915V13.0277L5.55913 13.0176ZM5.69849 14.9161C6.05913 14.9161 6.3551 14.6603 6.3551 14.301C6.3551 13.9431 6.05625 13.65 5.69418 13.6514L1.97723 13.6571V14.9247L5.69849 14.9161ZM1.08643 11.3549L6.02321 11.3491C6.84936 11.3477 7.08499 12.0001 7.07206 12.3925C7.05769 12.7834 6.90108 13.1398 6.67694 13.2476C7.08499 13.4387 7.34648 13.9345 7.3393 14.347C7.30338 15.4622 6.22292 15.5484 5.76602 15.5484L1.09505 15.5542L1.08643 11.3549Z" fill="#A9A9A9"/>
<path id="Vector_7" d="M23.6056 11.3251C23.2809 11.3251 22.505 11.4946 22.4921 12.2276C22.4791 12.857 22.8168 13.1416 23.0309 13.212C22.755 13.3284 22.5036 13.8156 22.505 14.2424C22.505 14.6692 22.6645 15.5229 24.0538 15.5215L27.8527 15.5172L27.8498 14.8877L24.1573 14.8906C23.7938 14.892 23.4978 14.6376 23.4992 14.2769C23.4949 13.9191 23.7909 13.6273 24.1573 13.6273L27.6573 13.6216L27.6544 12.9907L24.0696 12.9964C23.7579 12.9979 23.5064 12.7809 23.5064 12.4748C23.5007 12.1658 23.7564 11.9516 24.0682 11.9516L27.8469 11.9459L27.8484 11.3179L23.6056 11.3251Z" fill="#A9A9A9"/>
<path id="Vector_8" d="M20.9023 12.6455L21.806 12.6441C21.8046 11.6108 21.3348 11.3147 20.0603 11.3291L17.5991 11.332C17.046 11.332 16.0761 11.5835 16.0747 12.4371C16.0776 13.2908 16.4023 13.6357 17.3994 13.6343L20.3419 13.6299C20.6767 13.6285 21.023 13.8412 21.0244 14.2335C21.0259 14.6244 20.8247 14.909 20.2083 14.8989L17.8922 14.9018C17.5905 14.9018 16.9655 14.8673 16.9655 14.2134L16.0761 14.2149C16.079 14.7265 16.1839 15.5313 17.5417 15.5298L20.4511 15.5255C21.0259 15.5255 21.9598 15.251 21.9598 14.1962C21.9583 13.1413 21.0805 12.9976 20.5876 12.999L17.648 13.0034C17.1681 13.0034 17.0115 12.7073 17.0115 12.4831C17.0115 12.2561 17.1667 11.9629 17.648 11.9614L20.2055 11.9571C20.6279 11.9586 20.9023 12.1238 20.9023 12.6455Z" fill="#A9A9A9"/>
<path id="Vector_9" d="M14.5507 12.6455L15.4545 12.6441C15.453 11.6108 14.9832 11.3147 13.7088 11.3291L11.2476 11.332C10.6944 11.332 9.72458 11.5835 9.72314 12.4371C9.72602 13.2908 10.0507 13.6357 11.0479 13.6343L13.9904 13.6299C14.3252 13.6285 14.6729 13.8412 14.6729 14.2335C14.6743 14.6244 14.4731 14.909 13.8568 14.8989L11.5421 14.9018C11.2404 14.9018 10.6154 14.8673 10.6154 14.2134L9.72602 14.2149C9.72889 14.7265 9.83378 15.5313 11.1915 15.5298L14.101 15.5255C14.6757 15.5255 15.6096 15.251 15.6096 14.1962C15.6082 13.1413 14.7303 12.9976 14.2375 12.999L11.2964 13.0034C10.8165 13.0034 10.6599 12.7073 10.6599 12.4831C10.6599 12.2561 10.8137 11.9629 11.2964 11.9614L13.8539 11.9571C14.2763 11.9586 14.5507 12.1238 14.5507 12.6455Z" fill="#A9A9A9"/>
<path id="Vector_10" d="M28.1484 23.0609C29.5349 23.058 28.9788 21.7488 28.7303 21.3076C28.3581 20.6652 26.4415 17.229 26.4415 17.229L5.77337 17.2592C5.77337 17.2592 3.85958 20.7011 3.4932 21.3449C3.2432 21.7861 2.68142 23.0594 4.06504 23.058L28.1484 23.0609Z" fill="#A9A9A9"/>
<path id="Vector_11" d="M9.67627 9.67232L22.2093 9.66945C22.2093 9.66945 19.0685 3.90226 18.3171 2.5758C17.636 1.36718 17.2222 0.780828 15.899 0.783702C14.5771 0.785139 14.2079 1.37292 13.5067 2.61316C12.8228 3.8261 9.67627 9.67232 9.67627 9.67232Z" fill="#A9A9A9"/>
</g>
<defs>
<clipPath id="clip0_7484_2120">
<rect width="33.3333" height="24" fill="white" transform="translate(0.442871)"/>
</clipPath>
</defs>
</svg>
