<svg data-v-3eed97af="" xmlns="http://www.w3.org/2000/svg" aria-hidden="true" data-name="Layer 1" viewBox="0 0 24 24" role="img" class="hiw-card-icon" data-v-43f7d3df=""><line x1="3" x2="5" y1="6" y2="6" fill="none" vector-effect="non-scaling-stroke" stroke="var(--icon-color, #001e00)" stroke-linecap="round" stroke-linejoin="round" stroke-width="1.5"></line><line x1="3" x2="5" y1="10" y2="10" fill="none" vector-effect="non-scaling-stroke" stroke="var(--icon-color, #001e00)" stroke-linecap="round" stroke-linejoin="round" stroke-width="1.5"></line><line x1="3" x2="5" y1="14" y2="14" fill="none" vector-effect="non-scaling-stroke" stroke="var(--icon-color, #001e00)" stroke-linecap="round" stroke-linejoin="round" stroke-width="1.5"></line><line x1="3" x2="5" y1="18" y2="18" fill="none" vector-effect="non-scaling-stroke" stroke="var(--icon-color, #001e00)" stroke-linecap="round" stroke-linejoin="round" stroke-width="1.5"></line><line x1="16.73" x2="19.47" y1="6.42" y2="8.72" fill="none" vector-effect="non-scaling-stroke" stroke="var(--icon-color, #001e00)" stroke-linecap="round" stroke-linejoin="round" stroke-width="1.5"></line><path fill="none" vector-effect="non-scaling-stroke" stroke="var(--icon-color, #001e00)" stroke-linecap="round" stroke-linejoin="round" stroke-width="1.5" d="M12 17.13l-1.28.37a.89.89 0 01-1.14-.95l.15-1.34a1.84 1.84 0 01.4-1l7.7-9.16a1.78 1.78 0 012.52-.22h0a1.78 1.78 0 01.22 2.52l-7.7 9.16a1.82 1.82 0 01-.87.62z"></path><path fill="none" vector-effect="non-scaling-stroke" stroke="var(--icon-color, #001e00)" stroke-linecap="round" stroke-linejoin="round" stroke-width="1.5" d="M19 13.54V18a3 3 0 01-3 3H8a3 3 0 01-3-3V6a3 3 0 013-3h8"></path></svg>