<svg width="100" height="24" viewBox="0 0 100 24" fill="none" xmlns="http://www.w3.org/2000/svg">
<g clip-path="url(#clip0_9696_30983)">
<path d="M59.362 9.46972C60.913 9.46972 62.3817 10.4133 62.6917 12.4521H55.7843C56.0733 10.6631 57.4181 9.46972 59.362 9.46972ZM62.4709 15.4685C61.9434 16.2862 60.9237 16.9153 59.5277 16.9153C57.6041 16.9153 56.1353 15.8667 55.7843 14.0153H64.4502C64.492 13.75 64.5131 13.4818 64.5134 13.2133C64.5134 10.3341 62.4893 7.7832 59.3632 7.7832C56.1372 7.7832 53.9448 10.1485 53.9448 13.1931C53.9448 16.2755 56.1587 18.6031 59.4872 18.6031C61.5556 18.6031 63.1275 17.6771 64.0371 16.2755L62.4709 15.4685Z" fill="white"/>
<path d="M53.0934 3.32031H51.2944V18.3354H53.0934V3.32031Z" fill="white"/>
<path d="M74.5238 12.0213V18.3352H72.7242V12.1238C72.7242 10.4373 71.7526 9.49117 70.1598 9.49117C68.5051 9.49117 67.1609 10.458 67.1609 12.885V18.3352H65.3613V8.05251H67.1609V9.53332C67.9263 8.31986 69.0636 7.78516 70.5134 7.78516C72.9329 7.78516 74.5257 9.38927 74.5257 12.0225" fill="white"/>
<path d="M84.4453 13.1928C84.4453 11.0949 82.8525 9.51092 80.7639 9.51092C78.6954 9.51092 77.1033 11.0949 77.1033 13.1928C77.1033 15.2907 78.6954 16.8747 80.7639 16.8747C82.8513 16.8747 84.4453 15.2907 84.4453 13.1928ZM86.2442 3.32031V18.3354H84.4453V16.5659C83.6179 17.824 82.2946 18.6028 80.5361 18.6028C77.6612 18.6028 75.3037 16.2369 75.3037 13.1928C75.3037 10.1488 77.6612 7.78288 80.5361 7.78288C82.294 7.78288 83.6179 8.56418 84.4453 9.81916V3.32031H86.2442Z" fill="white"/>
<path d="M89.4943 3.32031H87.6953V18.3354H89.4943V3.32031Z" fill="white"/>
<path d="M48.0879 13.1931C48.0879 11.0952 46.4957 9.51124 44.4064 9.51124C42.3386 9.51124 40.7459 11.0952 40.7459 13.1931C40.7459 15.2911 42.3386 16.875 44.4064 16.875C46.4938 16.875 48.0879 15.2911 48.0879 13.1931ZM49.8875 8.05244V18.3351H48.0879V16.5662C47.2605 17.8243 45.9372 18.6031 44.1793 18.6031C41.3044 18.6031 38.9463 16.2372 38.9463 13.1931C38.9463 10.1491 41.3044 7.7832 44.1793 7.7832C45.9372 7.7832 47.2605 8.5645 48.0879 9.81948V8.05244H49.8875Z" fill="white"/>
<path d="M36.2774 16.3556C35.3563 16.6936 34.3621 16.7849 33.3944 16.6203C32.4267 16.4556 31.5195 16.0409 30.7639 15.4176C30.0082 14.7943 29.4305 13.9844 29.0889 13.0691C28.7472 12.1538 28.6535 11.1652 28.8171 10.2025C28.9808 9.23986 29.3961 8.33687 30.0213 7.58414C30.6466 6.8314 31.4598 6.25536 32.3795 5.91377C33.2992 5.57219 34.2931 5.47707 35.2614 5.63794C36.2298 5.79882 37.1386 6.21003 37.8967 6.83037C38.2128 7.08977 38.4988 7.38347 38.7494 7.70602L40.3061 6.57371C39.3992 5.39465 38.1607 4.5099 36.7476 4.03161C35.3345 3.55332 33.8104 3.50302 32.3686 3.88708C30.9267 4.27114 29.632 5.07227 28.6484 6.18893C27.6649 7.3056 27.0369 8.68751 26.844 10.1595C26.6511 11.6315 26.9019 13.1274 27.5648 14.4574C28.2277 15.7875 29.2727 16.8919 30.5674 17.6307C31.8621 18.3694 33.3482 18.7093 34.8374 18.6072C36.3265 18.505 37.7517 17.9655 38.9322 17.057L37.8961 15.4278C37.412 15.8242 36.865 16.1378 36.2774 16.3556Z" fill="white"/>
<path d="M98.1792 8.05176V13.8882C98.1792 15.7754 97.0754 16.9706 95.3903 16.9706C93.7052 16.9706 92.485 15.7754 92.485 13.8882V8.05176H90.6646V13.7133C90.6646 16.68 92.5236 18.6062 95.3903 18.6062C97.8699 18.6062 98.257 17.0461 98.257 17.0071V19.1069C98.257 21.1872 97.3468 22.3623 95.4485 22.3623C94.7704 22.3656 94.1143 22.1237 93.6022 21.6816C93.0902 21.2395 92.7572 20.6274 92.6653 19.9593L91.0378 20.5254C91.2707 21.5153 91.8338 22.3975 92.6353 23.0283C93.4368 23.6592 94.4295 24.0016 95.4517 23.9998C98.3955 23.9998 100.006 22.0729 100.006 19.1069V8.05176H98.1792Z" fill="white"/>
<path d="M14.6487 14.0428C13.9573 14.653 13.0939 15.4123 11.5283 15.4123H10.5922C9.45927 15.4123 8.42885 15.0028 7.6913 14.2605C6.97083 13.5352 6.57422 12.5425 6.57422 11.4649V10.1911C6.57422 9.11349 6.97083 8.12083 7.6913 7.39552C8.42885 6.65322 9.45927 6.24433 10.5922 6.24433H11.5283C13.0958 6.24433 13.9573 7.00298 14.6487 7.61317C15.3666 8.24224 15.9859 8.79204 17.6375 8.79204C17.8894 8.79198 18.1409 8.77199 18.3896 8.73228L18.3839 8.71781C18.2849 8.4735 18.1689 8.23639 18.0366 8.00823L16.9328 6.10657C16.4351 5.2493 15.7192 4.53743 14.8571 4.04252C13.995 3.5476 13.0171 3.28707 12.0217 3.28711H9.8135C8.81809 3.28707 7.84021 3.5476 6.97813 4.04252C6.11606 4.53743 5.40016 5.2493 4.9024 6.10657L3.79861 8.00823C3.30102 8.86559 3.03906 9.83808 3.03906 10.828C3.03906 11.8179 3.30102 12.7904 3.79861 13.6478L4.9024 15.5494C5.40016 16.4067 6.11606 17.1186 6.97813 17.6135C7.84021 18.1084 8.81809 18.3689 9.8135 18.3689H12.0217C13.0171 18.3689 13.995 18.1084 14.8571 17.6135C15.7192 17.1186 16.4351 16.4067 16.9328 15.5494L18.0366 13.6509C18.1689 13.4228 18.2849 13.1856 18.3839 12.9413L18.3896 12.9275C18.141 12.8864 17.8895 12.8654 17.6375 12.8646C15.9859 12.8646 15.3666 13.4112 14.6487 14.0435" fill="white"/>
<path d="M11.5282 7.39844H10.5921C8.86775 7.39844 7.73486 8.62322 7.73486 10.1908V11.4647C7.73486 13.0323 8.86775 14.2571 10.5921 14.2571H11.5282C14.0407 14.2571 13.8434 11.7094 17.6374 11.7094C17.9969 11.709 18.3556 11.7419 18.7089 11.8075C18.824 11.1594 18.824 10.4962 18.7089 9.84801C18.3555 9.91338 17.9968 9.94623 17.6374 9.94614C13.8421 9.94614 14.0407 7.39844 11.5282 7.39844Z" fill="white"/>
<path d="M20.8885 12.7389C20.2424 12.2683 19.4973 11.9497 18.7093 11.8072C18.7093 11.8141 18.7093 11.8198 18.7093 11.8261C18.6415 12.2017 18.5355 12.5695 18.3931 12.9238C19.044 13.024 19.6615 13.277 20.1946 13.6617C20.1946 13.6667 20.1914 13.673 20.1895 13.6787C19.5034 15.8881 18.0432 17.7794 16.0741 19.0092C14.105 20.2389 11.7577 20.7255 9.45859 20.3805C7.15946 20.0354 5.06104 18.8817 3.54452 17.1289C2.028 15.3761 1.19399 13.1404 1.19399 10.8281C1.19399 8.51573 2.028 6.28009 3.54452 4.52727C5.06104 2.77444 7.15946 1.62073 9.45859 1.27571C11.7577 0.930685 14.105 1.41724 16.0741 2.64699C18.0432 3.87674 19.5034 5.7681 20.1895 7.97748C20.1895 7.98314 20.1927 7.98944 20.1946 7.99447C19.6616 8.37923 19.044 8.63198 18.3931 8.73173C18.5354 9.08655 18.6413 9.45473 18.7093 9.8307C18.709 9.83657 18.709 9.84245 18.7093 9.84832C19.4972 9.70606 20.2423 9.38772 20.8885 8.9173C21.5096 8.45997 21.3894 7.94351 21.2952 7.63779C20.5272 5.16061 18.8911 3.03963 16.6841 1.66026C14.4772 0.280891 11.8459 -0.265327 9.26839 0.120862C6.69088 0.507051 4.3382 1.80002 2.63788 3.76481C0.937563 5.72961 0.00244141 8.23584 0.00244141 10.8281C0.00244141 13.4203 0.937563 15.9266 2.63788 17.8913C4.3382 19.8561 6.69088 21.1491 9.26839 21.5353C11.8459 21.9215 14.4772 21.3753 16.6841 19.9959C18.8911 18.6165 20.5272 16.4956 21.2952 14.0184C21.3894 13.7126 21.5096 13.1962 20.8885 12.7389Z" fill="white"/>
</g>
<defs>
<clipPath id="clip0_9696_30983">
<rect width="100" height="24" fill="white"/>
</clipPath>
</defs>
</svg>
