<svg width="106" height="19" viewBox="0 0 106 19" fill="none" xmlns="http://www.w3.org/2000/svg">
<g clip-path="url(#clip0_9696_30997)">
<path d="M21.3936 5.30444C17.5429 5.30444 14.5341 8.23761 14.5341 12.1643C14.5341 16.091 17.4668 18.999 21.3936 18.999C25.3203 18.999 28.3041 16.0408 28.3041 12.1392C28.3041 8.26272 25.3713 5.30444 21.3936 5.30444ZM21.4196 16.1692C19.2267 16.1692 17.6198 14.4602 17.6198 12.1653C17.6198 9.8442 19.2007 8.13624 21.3936 8.13624C23.6124 8.13624 25.2183 9.87027 25.2183 12.1653C25.2183 14.4602 23.6124 16.1692 21.4196 16.1692ZM29.1451 8.28878H31.0579V18.7451H34.1178V5.55933H29.1451V8.28878ZM6.83356 8.13527C8.44043 8.13527 9.71535 9.12973 10.1993 10.6089H13.4381C12.8512 7.44687 10.2503 5.30444 6.85954 5.30444C3.00881 5.30444 0 8.23761 0 12.1653C0 16.0929 2.93279 19 6.85954 19C10.1743 19 12.8261 16.8576 13.4131 13.6695H10.1993C9.74037 15.1486 8.46545 16.1692 6.85857 16.1692C4.63974 16.1692 3.08482 14.4602 3.08482 12.1653C3.08578 9.8442 4.61568 8.13527 6.83356 8.13527ZM87.2832 10.8898L85.0394 10.5587C83.9685 10.4061 83.2035 10.0489 83.2035 9.20697C83.2035 8.28878 84.1984 7.83017 85.5494 7.83017C87.0283 7.83017 87.9722 8.4674 88.1762 9.51303H91.134C90.802 6.86082 88.7622 5.3054 85.6263 5.3054C82.3876 5.3054 80.2457 6.96316 80.2457 9.30931C80.2457 11.5531 81.6486 12.8546 84.4784 13.2621L86.7223 13.5932C87.8192 13.7458 88.4312 14.1802 88.4312 14.9961C88.4312 16.0417 87.3602 16.4752 85.8813 16.4752C84.0705 16.4752 83.0505 15.7357 82.8975 14.6138H79.8887C80.1697 17.1897 82.1836 19 85.8553 19C89.1961 19 91.414 17.4697 91.414 14.8426C91.414 12.4964 89.8081 11.2722 87.2832 10.8898ZM32.5878 0.127446C31.4659 0.127446 30.624 0.94329 30.624 2.0652C30.624 3.1871 31.465 4.00295 32.5878 4.00295C33.7098 4.00295 34.5517 3.1871 34.5517 2.0652C34.5517 0.94329 33.7098 0.127446 32.5878 0.127446ZM77.4919 10.074C77.4919 7.21805 75.758 5.3054 72.0862 5.3054C68.6185 5.3054 66.6806 7.0655 66.2976 9.76889H69.3324C69.4854 8.72326 70.3014 7.85624 72.0352 7.85624C73.5911 7.85624 74.3561 8.54464 74.3561 9.38655C74.3561 10.4834 72.9532 10.7634 71.2193 10.942C68.8734 11.1969 65.9666 12.0127 65.9666 15.0733C65.9666 17.4456 67.7265 18.9749 70.5313 18.9749C72.7242 18.9749 74.1011 18.0567 74.79 16.6027C74.892 17.9032 75.861 18.7451 77.2128 18.7451H78.9977V16.0166H77.4928V10.074H77.4919ZM74.4831 13.3895C74.4831 15.1496 72.9532 16.4501 71.0913 16.4501C69.9434 16.4501 68.9745 15.9654 68.9745 14.9459C68.9745 13.6454 70.5303 13.2881 71.9583 13.1356C73.3352 13.0081 74.1001 12.7021 74.4831 12.115V13.3895ZM58.2402 5.30444C56.5313 5.30444 55.1034 6.0189 54.0834 7.21708V0H51.0236V18.7451H54.0324V17.0111C55.0524 18.2604 56.5063 19 58.2402 19C61.9119 19 64.6917 16.0929 64.6917 12.1653C64.6917 8.23761 61.8609 5.30444 58.2402 5.30444ZM57.7812 16.1692C55.5883 16.1692 53.9814 14.4602 53.9814 12.1653C53.9814 9.87027 55.6133 8.13624 57.8062 8.13624C60.025 8.13624 61.58 9.84517 61.58 12.1653C61.58 14.4602 59.974 16.1692 57.7812 16.1692ZM43.7051 5.30444C41.7163 5.30444 40.4154 6.12028 39.6504 7.26826V5.55933H36.6156V18.7441H39.6754V11.5782C39.6754 9.56324 40.9503 8.13527 42.8372 8.13527C44.5971 8.13527 45.693 9.38462 45.693 11.1959V18.7451H48.7528V10.9671C48.7538 7.65059 47.0459 5.30444 43.7051 5.30444ZM106 11.7317C106 7.95762 103.246 5.3054 99.5484 5.3054C95.6217 5.3054 92.7399 8.26368 92.7399 12.1653C92.7399 16.2715 95.8257 19 99.5994 19C102.787 19 105.286 17.1125 105.923 14.4351H102.735C102.276 15.6082 101.154 16.2715 99.6495 16.2715C97.6856 16.2715 96.2067 15.0473 95.8757 12.9048H105.999V11.7317H106ZM96.0547 10.7112C96.5396 8.87484 97.9165 7.98272 99.4974 7.98272C101.231 7.98272 102.557 8.97718 102.863 10.7112H96.0547Z" fill="white"/>
</g>
<defs>
<clipPath id="clip0_9696_30997">
<rect width="106" height="19" fill="white"/>
</clipPath>
</defs>
</svg>
