<svg xmlns="http://www.w3.org/2000/svg" fill="none" aria-hidden="true" viewBox="0 0 24 24" role="img"><path fill="var(--icon-color, #001e00)" fill-rule="evenodd" d="M19.814 5.715c.86.233 1.539.915 1.767 1.78.419 1.57.419 4.846.419 4.846s0 3.276-.42 4.846a2.506 2.506 0 01-1.767 1.778c-1.559.422-7.813.422-7.813.422s-6.254 0-7.814-.422a2.513 2.513 0 01-1.769-1.778C2 15.617 2 12.34 2 12.34s0-3.276.417-4.846a2.52 2.52 0 011.769-1.78c1.56-.42 7.814-.42 7.814-.42s6.256 0 7.814.42zm-4.633 6.626L9.952 9.366v5.949l5.229-2.974z" clip-rule="evenodd"></path></svg>