<svg width="76" height="23" viewBox="0 0 76 23" fill="none" xmlns="http://www.w3.org/2000/svg">
<g clip-path="url(#clip0_9960_21486)">
<path d="M6.28294 17.7175C3.99977 17.8625 1.93686 16.7195 0.834223 14.7464C-0.263041 12.7814 -0.264384 10.3839 0.761699 8.39202C1.70451 6.62175 3.38197 5.49889 5.3737 5.29339C6.98132 5.12684 8.44792 5.73528 9.64189 6.92128L9.65129 0.243164H12.4838V17.4905H9.65397L9.62174 16.0923C8.65878 17.0083 7.62867 17.6342 6.28428 17.7188L6.28294 17.7175ZM6.41322 14.8861C8.50164 14.7787 9.97227 12.8365 9.58011 10.8594C9.36925 9.79426 8.6749 8.96957 7.85027 8.52499C6.82419 7.97296 5.67991 7.97296 4.70352 8.4941C3.53642 9.11463 2.76686 10.3342 2.84744 11.6639C2.9616 13.5282 4.51953 14.9815 6.41187 14.8848L6.41322 14.8861Z" fill="white"/>
<path d="M47.8836 17.4889L47.846 16.0289C47.0066 16.9248 46.0987 17.4835 44.9464 17.6622C42.6391 18.0195 40.3734 16.9423 39.1633 14.9369C37.8793 12.8081 37.8941 10.0936 39.213 7.99154C40.1652 6.47379 41.6788 5.53493 43.4395 5.31063C45.2002 5.08632 46.7058 5.71089 47.8608 6.95195L47.8742 5.51613H50.6772V17.4889H47.8836ZM44.287 14.8886C46.1014 14.988 47.6231 13.6139 47.8353 11.8853C48.0945 9.77658 46.2532 7.9217 44.1312 8.13123C42.7143 8.27092 41.5055 9.28768 41.1563 10.7436C40.6769 12.7436 42.1542 14.7717 44.2883 14.8886H44.287Z" fill="white"/>
<path d="M24.1964 17.4891L24.1588 16.0278C23.3194 16.925 22.4115 17.4824 21.2592 17.6611C19.0566 18.0009 16.8809 17.0392 15.6332 15.1776C14.1948 13.0312 14.1572 10.1757 15.5271 7.98909C16.4793 6.46999 17.9929 5.53248 19.7537 5.30683C21.4352 5.09192 23.0199 5.70709 24.175 6.94949L24.1884 5.51367H26.9913V17.4865H24.1978L24.1964 17.4891ZM20.5984 14.8888C22.1429 14.9721 23.4631 14.0091 23.9789 12.6055C24.4127 11.4235 24.1065 10.1435 23.2684 9.22344C22.4774 8.35576 21.2619 7.92059 20.0424 8.19593C18.2145 8.60693 17.0206 10.4511 17.4705 12.2724C17.8304 13.7283 19.0539 14.8055 20.5984 14.8888Z" fill="white"/>
<path d="M64.8193 17.7299C62.8881 17.7876 61.181 17.0395 59.9266 15.6345C58.1767 13.6722 57.8516 10.8247 59.1235 8.49842C60.3322 6.28761 62.8128 4.99819 65.3767 5.31786C68.7437 5.73826 71.1182 8.69721 70.8106 12.0846C70.5286 15.1819 67.997 17.6345 64.8207 17.7299H64.8193ZM64.4352 14.8878C66.4216 14.9898 68.0413 13.3539 67.9956 11.405C67.9661 10.168 67.2516 9.10955 66.1812 8.51857C65.2048 7.97863 64.0296 7.97191 62.9942 8.52529C62.1668 8.96718 61.4765 9.7959 61.263 10.861C60.8668 12.8408 62.3387 14.7803 64.4339 14.8878H64.4352Z" fill="white"/>
<path d="M36.8181 17.5052C35.2132 17.841 32.9958 17.9578 31.8811 16.7812C31.2096 16.0707 30.9423 14.8632 30.941 13.872L30.9343 8.35165L28.7236 8.34762V5.52433L29.9512 5.50956C30.5005 5.50284 30.8738 5.09184 30.937 4.56264V2.29675L33.7708 2.29004L33.7829 5.5109L36.8168 5.51627L36.8208 8.3409L33.7775 8.35702L33.7869 13.1883C33.7869 13.6987 33.8514 14.291 34.1912 14.6698C34.5054 15.019 35.0332 15.0016 35.4603 15.0136L36.8181 14.8108V17.5038V17.5052Z" fill="white"/>
<path d="M53.0287 23.0003H51.7891L51.7931 20.2469C52.2618 20.2872 52.705 20.2643 53.026 19.9702C53.347 19.676 53.4235 19.2301 53.4732 18.7654V5.5166H56.3124V18.5652C56.2775 20.682 55.6167 22.4322 53.4611 22.8794C53.3618 22.9224 53.1388 23.0016 53.0287 23.0016V23.0003Z" fill="white"/>
<path d="M75.7083 17.4847L72.8745 17.4901V5.51465L75.7083 5.51599V17.4847Z" fill="white"/>
<path d="M56.5541 1.45422C56.6347 2.19295 56.3151 2.81751 55.7496 3.15464C55.1506 3.51326 54.3958 3.47297 53.8345 3.0257C53.4101 2.68723 53.1871 2.17414 53.1992 1.64763C53.2113 1.12112 53.4544 0.583862 53.9177 0.291057C54.4348 -0.0366705 55.0445 -0.102485 55.6355 0.164801C56.0827 0.366273 56.487 0.841746 56.5541 1.45422Z" fill="white"/>
<path d="M72.8907 2.61428C72.5321 2.03539 72.5402 1.43635 72.8397 0.853422C73.3124 -0.0626028 74.5803 -0.268104 75.3727 0.376605C76.1745 1.02803 76.2201 2.25298 75.4385 2.95947C74.6568 3.66597 73.4588 3.53299 72.8907 2.61428Z" fill="white"/>
</g>
<defs>
<clipPath id="clip0_9960_21486">
<rect width="76" height="23" fill="white"/>
</clipPath>
</defs>
</svg>
