<svg width="79" height="16" viewBox="0 0 79 16" fill="none" xmlns="http://www.w3.org/2000/svg">
<g id="logo-glassdoor" clip-path="url(#clip0_7484_2133)">
<path id="Vector" fill-rule="evenodd" clip-rule="evenodd" d="M75.8336 5.57019H78.8164C78.8387 5.57019 78.8571 5.55019 78.8571 5.52553V2.54153C78.8565 1.81219 78.6186 1.21886 78.1369 0.804193C77.694 0.422859 77.029 0.192859 76.1399 0.147526C76.1175 0.146193 76.0991 0.165526 76.0991 0.189526V1.31486C76.0991 1.33686 76.1155 1.35486 76.1359 1.35686C76.9159 1.41219 77.5093 1.66753 77.5093 2.55686L75.8336 2.55753C75.8113 2.55753 75.7929 2.57753 75.7929 2.60219V5.52619C75.7929 5.55019 75.8113 5.57019 75.8336 5.57019ZM11.3153 7.98553H7.69843C7.64191 7.98553 7.60577 8.03686 7.60577 8.08753V10.0582C7.60577 10.1202 7.65177 10.1602 7.69843 10.1602H8.98314V11.7469C8.98314 12.9269 8.69926 13.5602 7.69843 13.5602C6.86254 13.5602 6.26914 13.0462 6.26914 11.4475V6.84019C6.26914 5.30953 6.71863 4.59219 7.7142 4.59219C8.61186 4.59219 8.97789 5.15153 8.97789 6.19619V6.78953C8.97789 6.85153 9.02454 6.89086 9.0712 6.89086H11.295C11.3515 6.89086 11.3876 6.84019 11.3876 6.78953V6.09353C11.408 3.61486 10.1082 2.30419 7.7556 2.30419C5.40303 2.30419 3.87057 3.72219 3.87057 6.70419V11.6342C3.87057 14.5709 5.65537 15.8475 7.63666 15.8475C9.85517 15.8475 11.4027 14.9609 11.4027 11.6795V8.08153C11.4037 8.05653 11.3952 8.03206 11.3789 8.01319C11.3627 7.99439 11.3399 7.98253 11.3153 7.98019V7.98553ZM18.239 13.2362H14.7614V2.65286C14.7614 2.59019 14.7154 2.55086 14.6687 2.55086H12.4805C12.4239 2.55086 12.3885 2.60153 12.3885 2.65286V15.5122C12.3885 15.5742 12.4345 15.6135 12.4805 15.6135H18.2337C18.2903 15.6135 18.3264 15.5629 18.3264 15.5122V13.3435C18.3264 13.2815 18.2804 13.2415 18.2337 13.2415H18.239V13.2362ZM50.9187 6.73753C50.9187 3.77286 52.4196 2.32686 54.7157 2.32686C56.9809 2.32686 58.5028 3.77819 58.4923 6.73753V11.4362C58.4923 14.4409 57.084 15.8242 54.7157 15.8242C52.3473 15.8242 50.9187 14.4689 50.9187 11.4362V6.73753ZM54.7157 13.5709C55.6751 13.5709 56.0727 12.8595 56.0727 11.3462V6.84486C56.0727 5.33153 55.6856 4.59753 54.7157 4.59753C53.7457 4.59753 53.3587 5.35953 53.3587 6.84486V11.3462C53.3587 12.8655 53.7563 13.5709 54.7157 13.5709ZM63.2139 2.32686C60.9178 2.32686 59.4162 3.77286 59.4162 6.73753V11.4362C59.4162 14.4695 60.8455 15.8242 63.2139 15.8242C65.5822 15.8242 66.9905 14.4409 66.9905 11.4362V6.73753C67.001 3.77819 65.479 2.32686 63.2139 2.32686ZM64.5709 11.3469C64.5709 12.8602 64.1733 13.5715 63.2139 13.5715C62.2544 13.5715 61.8569 12.8655 61.8569 11.3469V6.84553C61.8569 5.36019 62.2439 4.59819 63.2139 4.59819C64.1838 4.59819 64.5709 5.33153 64.5709 6.84553V11.3469ZM42.9016 2.54686H46.1827V2.55819C48.4012 2.55819 50.073 3.79486 50.073 6.84486V11.3235C50.073 14.3449 48.4426 15.6102 46.1564 15.6102H42.9016C42.8549 15.6102 42.8083 15.5702 42.8083 15.5082V2.66019C42.8083 2.60353 42.8444 2.54686 42.9016 2.54686ZM46.0539 13.2322C47.0442 13.2322 47.6639 12.5429 47.6639 10.9335L47.6685 10.9389V7.01419C47.6685 5.38753 47.0186 4.73219 46.0329 4.73219H45.1299V13.2322H46.0539ZM30.937 2.30419H30.9008C28.6409 2.30419 27.4495 3.71619 27.4495 5.83419C27.4495 8.03886 28.8532 9.06486 30.0111 9.91086L30.2351 10.0755L30.5039 10.2735L30.5046 10.2742L30.5052 10.2749C31.3227 10.8749 31.9536 11.3375 31.9536 12.3569C31.9536 13.2102 31.4377 13.5489 30.8391 13.5655C30.1786 13.5822 29.6989 13.0289 29.6989 12.3342V11.2102C29.6992 11.1934 29.6962 11.1767 29.69 11.1611C29.6839 11.1456 29.6749 11.1313 29.6633 11.1193C29.6518 11.1073 29.638 11.0977 29.6228 11.0911C29.6076 11.0845 29.5913 11.0811 29.5747 11.0809H27.4594C27.3871 11.0809 27.3358 11.1369 27.3358 11.2109V12.3509C27.3358 14.6042 28.5844 15.8529 30.7825 15.8529C32.98 15.8529 34.3114 14.5762 34.3114 12.3342C34.3114 9.99953 32.9485 8.99086 31.761 8.11086L31.7216 8.08153C31.5919 7.98526 31.4613 7.89019 31.3299 7.79619C30.5164 7.20953 29.7607 6.66486 29.7607 5.81686C29.7607 4.97553 30.2864 4.58019 30.8956 4.58019C31.5514 4.58019 32.0153 5.09419 32.0153 5.77219V6.76553C32.0153 6.83886 32.0725 6.89553 32.1395 6.89553H34.2549C34.3272 6.89553 34.3784 6.83953 34.3784 6.76619V5.80019C34.3837 3.58686 33.0681 2.31553 30.937 2.30419ZM38.5355 2.30419H38.5717C40.7028 2.31553 42.0131 3.58619 42.0131 5.80019V6.76619C42.0131 6.83953 41.9619 6.89553 41.8896 6.89553H39.7736C39.7571 6.89526 39.7408 6.89173 39.7257 6.88506C39.7106 6.87846 39.6969 6.86886 39.6854 6.85679C39.674 6.84479 39.6649 6.83059 39.6588 6.81506C39.6528 6.79953 39.6498 6.78293 39.65 6.76619V5.77219C39.65 5.09419 39.1861 4.58019 38.5303 4.58019C37.9217 4.58019 37.3954 4.97553 37.3954 5.81686C37.3954 6.66419 38.1511 7.20953 38.9646 7.79619C39.0947 7.88953 39.2262 7.98486 39.3563 8.08153L39.3957 8.11086C40.5838 8.99086 41.9461 9.99953 41.9461 12.3342C41.9461 14.5762 40.6147 15.8529 38.4172 15.8529C36.2191 15.8529 34.9705 14.6049 34.9705 12.3515V11.2102C34.9705 11.1369 35.0224 11.0809 35.0941 11.0809H37.2101C37.2771 11.0809 37.3336 11.1369 37.3336 11.2109V12.3335C37.3336 13.0282 37.8133 13.5815 38.4737 13.5649C39.0717 13.5482 39.5883 13.2089 39.5883 12.3562C39.5883 11.3362 38.9574 10.8742 38.1406 10.2742C38.0525 10.2095 37.9618 10.1435 37.8705 10.0742L37.6484 9.91153L37.6464 9.91019C36.4879 9.06419 35.0835 8.03819 35.0835 5.83353C35.0835 3.71553 36.2763 2.30353 38.5355 2.30353V2.30419ZM74.9872 6.56953V5.49086C74.9872 3.84753 73.7387 2.55419 72.3041 2.55419H68.0425C67.9913 2.55419 67.9499 2.59953 67.9499 2.65553V15.5042C67.9499 15.5602 67.9913 15.6055 68.0425 15.6055H70.127C70.1835 15.6055 70.2197 15.5549 70.2197 15.5042V10.1555H71.2415C72.1911 10.1555 72.4901 10.5395 72.4901 11.5169V15.4929C72.4901 15.5549 72.5367 15.5942 72.5827 15.5942H74.7342C74.7605 15.5935 74.7848 15.5825 74.8032 15.5637C74.8216 15.5447 74.8321 15.5193 74.8321 15.4929V11.5902C74.8321 10.2569 74.497 9.40419 73.6407 9.05419C74.5023 8.67019 74.9872 7.90219 74.9872 6.56953ZM72.655 7.02153C72.655 7.55753 72.2627 7.98686 71.7777 7.98686H70.194V4.72286H71.7777C72.2627 4.72286 72.655 5.15219 72.655 5.68286V7.02153ZM21.9893 2.55419H24.2085C24.2499 2.55419 24.2906 2.58753 24.3011 2.63886L27.1801 15.4702C27.2064 15.5435 27.1538 15.6115 27.0874 15.6115H24.9616C24.9254 15.6115 24.8788 15.5775 24.8689 15.5262L24.4148 13.2282H21.7626L21.3092 15.5262C21.306 15.5492 21.2948 15.5703 21.2778 15.5858C21.2607 15.6013 21.2387 15.6101 21.2159 15.6109H19.09C19.0282 15.6109 18.9816 15.5435 18.9973 15.4702L21.896 2.63886C21.8982 2.6154 21.9089 2.59364 21.9263 2.57794C21.9436 2.56223 21.9661 2.55375 21.9893 2.55419ZM23.0683 6.63153L22.1911 11.0709H23.9653L23.0887 6.63153L23.0782 6.69353L23.0683 6.63153ZM3.02286 2.55153H0.0407429C0.0184 2.55153 0 2.57153 0 2.59553V5.51886C0 5.54353 0.0184 5.56353 0.0407429 5.56353H1.71646C1.71646 6.45353 1.12306 6.70886 0.343029 6.76419C0.332746 6.76506 0.323182 6.76986 0.316328 6.77773C0.309474 6.78553 0.305856 6.79573 0.306229 6.80619V7.93219C0.306229 7.95553 0.325286 7.97486 0.346971 7.97353C1.23609 7.92819 1.90111 7.69819 2.34403 7.31686C2.82571 6.90219 3.0636 6.30886 3.06426 5.57953V2.59553C3.06426 2.57086 3.04586 2.55086 3.02351 2.55086L3.02286 2.55153Z" fill="#8D8C8C"/>
</g>
<defs>
<clipPath id="clip0_7484_2133">
<rect width="79" height="16" fill="white"/>
</clipPath>
</defs>
</svg>
