<svg width="96" height="20" viewBox="0 0 96 20" fill="none" xmlns="http://www.w3.org/2000/svg">
<g id="logo-microsoft-grey" clip-path="url(#clip0_7484_2111)">
<path id="Vector" fill-rule="evenodd" clip-rule="evenodd" d="M95.9949 7.36996V9.08287H93.8236V13.1601C93.8236 13.6908 93.8839 14.0768 94.089 14.2819C94.282 14.5473 94.6197 14.6076 95.0057 14.6076C95.066 14.6076 95.2711 14.6076 95.4038 14.5473C95.5968 14.487 95.7295 14.4146 95.8622 14.3543L95.9225 14.294V15.9345C95.7898 15.9948 95.5968 16.0672 95.259 16.1275C95.1264 16.1275 94.9816 16.1396 94.8368 16.1637C94.6921 16.1757 94.5353 16.1999 94.4146 16.1999C92.6414 16.1999 91.785 15.2831 91.785 13.4375V9.03461H88.6969V16.0069H86.5859V9.03461H85.1384V7.39408H86.5859V6.21194C86.5859 5.62086 86.7186 5.0901 86.984 4.63172C87.2494 4.10096 87.6475 3.77527 88.1058 3.50989C88.5642 3.24451 89.1553 3.11182 89.7464 3.11182C90.2771 3.11182 90.6631 3.17213 90.9285 3.24451H90.9888V5.01773L90.9285 4.95741C90.6028 4.82472 90.2651 4.76441 90.0118 4.76441C89.5534 4.76441 89.2277 4.8971 89.0226 5.16248C88.8296 5.42786 88.6969 5.75355 88.6969 6.28431V7.40615H91.785V5.42786H91.8453L93.8236 4.83679H93.8839V7.40615H95.9949V7.36996ZM42.1107 4.07683C42.3037 3.88383 42.6414 3.75114 42.9671 3.75114C43.3652 3.75114 43.6306 3.88383 43.8839 4.07683C44.0769 4.34221 44.2096 4.60759 44.2096 4.93329C44.2096 5.25898 44.0769 5.59674 43.8115 5.78974C43.6185 5.98275 43.2808 6.11544 42.9551 6.11544C42.6294 6.11544 42.364 5.98275 42.0986 5.78974C41.8332 5.52436 41.7005 5.25898 41.7005 4.93329C41.7005 4.60759 41.8332 4.26984 42.0986 4.07683H42.1107ZM33.8839 11.5195L33.2928 13.0998H33.2325C33.1722 12.7741 32.9671 12.183 32.7017 11.5195L29.6137 4.01652H26.5859V15.9948H28.5642V6.98395C28.5642 6.80301 28.5401 6.63413 28.528 6.48938C28.516 6.38082 28.5039 6.28431 28.5039 6.18781H28.5642C28.6125 6.51351 28.6849 6.76682 28.7572 6.98395C28.7814 7.08045 28.8175 7.16489 28.8296 7.23727L32.5087 15.9827H33.8959L37.5751 7.16489C37.5992 7.09252 37.6233 6.99601 37.6475 6.87539C37.6957 6.68238 37.756 6.45319 37.8284 6.23606H37.8887C37.8284 7.09252 37.8284 7.87659 37.8284 8.40735V16.0431H39.9394V4.01652H37.0443L33.8839 11.5195ZM41.9177 7.36996H43.9563V15.9948H41.9177V7.36996ZM51.3266 7.29758C50.9285 7.23727 50.5425 7.16489 50.1444 7.16489C49.2277 7.16489 48.3712 7.3579 47.6475 7.75597C46.9237 8.15404 46.3326 8.74511 46.0069 9.3965C45.6089 10.1203 45.4159 10.9043 45.4159 11.8935C45.4159 12.7499 45.6089 13.4737 45.9466 14.1251C46.3447 14.7885 46.8031 15.3072 47.5268 15.6329C48.1903 15.9586 48.9744 16.1637 49.8308 16.1637C50.82 16.1637 51.6764 15.9707 52.3278 15.5726V13.727L52.2675 13.7873C51.9418 13.9803 51.604 14.1854 51.2783 14.3181C50.8803 14.4508 50.5546 14.5111 50.2892 14.5111C49.4327 14.5111 48.8417 14.2457 48.3833 13.7873C47.9249 13.2566 47.6595 12.6052 47.6595 11.7487C47.6595 10.8923 47.9249 10.1685 48.3833 9.63775C48.8417 9.10699 49.5051 8.85367 50.2892 8.85367C50.9526 8.85367 51.6764 9.04668 52.2675 9.51712L52.3278 9.57744V7.59915C52.0624 7.46646 51.7367 7.33377 51.3387 7.27346L51.3266 7.29758ZM56.7789 7.69565C57.177 7.36996 57.6354 7.23727 58.1662 7.23727C58.4918 7.23727 58.7572 7.29758 58.8296 7.36996H58.8899V9.34825L58.8296 9.28793C58.7693 9.22762 58.5642 9.15524 58.3712 9.09493C58.2747 9.09493 58.1782 9.08287 58.0697 9.05874C57.9731 9.04668 57.8766 9.02255 57.7681 9.02255C57.2373 9.02255 56.7789 9.28793 56.4532 9.74632C56.0552 10.2047 55.9225 10.8681 55.9225 11.5919V15.9948H53.9442V7.36996H55.9828V8.8778C56.1758 8.34704 56.4412 7.96103 56.7669 7.69565H56.7789ZM63.7512 7.17695C62.3037 7.17695 61.1215 7.57503 60.3254 8.43148C59.4689 9.28793 59.0709 10.4098 59.0709 11.7849C59.0709 13.1601 59.4689 14.2216 60.253 15.0057C61.0371 15.7897 62.1589 16.1878 63.4738 16.1878C64.9213 16.1878 66.0431 15.7897 66.8272 14.9333C67.6836 14.0768 68.0817 12.955 68.0817 11.5799C68.0817 10.2047 67.6836 9.14318 66.8996 8.3591C66.2361 7.57503 65.1263 7.17695 63.7391 7.17695H63.7512ZM63.6909 14.5352C64.4146 14.5352 65.0057 14.2698 65.4038 13.8115C65.8622 13.2807 65.9949 12.5569 66.0672 11.7729C66.0672 10.8561 65.8019 10.1323 65.4038 9.66188C65.0057 9.19143 64.4146 8.93811 63.6909 8.93811C62.9068 8.93811 62.376 9.13112 61.9177 9.66188C61.4593 10.1203 61.2542 10.844 61.2542 11.7729C61.2542 12.6293 61.4472 13.3531 61.9177 13.8115C62.3157 14.2698 62.9671 14.5352 63.6909 14.5352ZM72.7741 10.9164C72.1107 10.651 71.7247 10.458 71.5196 10.253C71.3869 10.1203 71.2542 9.85488 71.2542 9.5895C71.2542 9.32412 71.3145 9.13112 71.5799 8.99843C71.8453 8.86574 72.1107 8.73305 72.4967 8.73305C72.8224 8.73305 73.2204 8.79336 73.5461 8.86574C73.8115 8.91399 74.0769 9.05874 74.3061 9.17937C74.3664 9.20349 74.4146 9.23968 74.4629 9.26381L74.5232 9.32412V7.41821H74.4629C74.3664 7.39408 74.2699 7.3579 74.1613 7.32171C73.9804 7.26139 73.7874 7.18902 73.5461 7.15283C73.1481 7.09252 72.8224 7.09252 72.557 7.09252C71.5678 7.09252 70.7838 7.3579 70.1203 7.81628C69.4569 8.27466 69.2035 8.93811 69.2035 9.72219C69.2035 10.1203 69.2639 10.5063 69.3965 10.7716C69.5292 11.037 69.7222 11.3627 70.06 11.5557C70.3254 11.7487 70.7838 12.0141 71.3145 12.2795C71.4713 12.3398 71.6161 12.4001 71.7488 12.4604C72.0142 12.569 72.2313 12.6534 72.364 12.7379C72.557 12.8706 72.7621 13.0033 72.8224 13.1359C72.8827 13.2686 72.9551 13.4013 72.9551 13.5943C72.9551 14.1854 72.4967 14.4508 71.5678 14.4508C71.2421 14.4508 70.8441 14.3905 70.446 14.2578C69.9876 14.1251 69.5896 13.9321 69.2639 13.6667L69.2035 13.6064V15.5847H69.2639C69.5896 15.7174 69.9273 15.8501 70.3857 15.9104C70.4581 15.9104 70.5184 15.9345 70.5787 15.9345C70.9526 15.9948 71.2904 16.0431 71.5678 16.0431C72.6173 16.0431 73.4738 15.7777 74.1372 15.3193C74.8007 14.7885 75.1263 14.1975 75.1263 13.341C75.1263 12.7499 74.9937 12.2192 74.5956 11.8935C74.487 11.8332 74.3785 11.7729 74.2699 11.7005C73.8598 11.4592 73.3652 11.1577 72.7621 10.9043L72.7741 10.9164ZM77.177 8.41942C77.9611 7.56296 79.1553 7.16489 80.6028 7.16489C82.0504 7.16489 83.0395 7.56296 83.7633 8.34704C84.5473 9.13112 84.9454 10.1926 84.9454 11.5678C84.9454 12.9429 84.5473 14.0648 83.6909 14.9212C82.9068 15.7777 81.785 16.1757 80.3374 16.1757C79.0226 16.1757 77.9008 15.7777 77.1167 14.9936C76.3326 14.2095 75.9346 13.0877 75.9346 11.7729C75.9346 10.3856 76.3929 9.27587 77.1891 8.41942H77.177ZM82.2434 13.8115C81.8453 14.2698 81.2542 14.5352 80.5304 14.5352C79.7464 14.5352 79.1432 14.2698 78.7572 13.8115C78.2988 13.3531 78.0938 12.6293 78.0938 11.7729C78.0938 10.8561 78.2868 10.1323 78.7572 9.66188C79.2156 9.13112 79.7464 8.93811 80.5304 8.93811C81.2542 8.93811 81.8453 9.20349 82.2434 9.66188C82.6414 10.1203 82.9068 10.844 82.9068 11.7729C82.8465 12.5569 82.6414 13.2807 82.2434 13.8115Z" fill="#8D8C8C"/>
<path id="Vector_2" d="M0 0.000488281H9.73462V9.46973H0V0.000488281Z" fill="#8D8C8C"/>
<path id="Vector_3" d="M10.7959 0.000488281H20.5305V9.46973H10.7959V0.000488281Z" fill="#8D8C8C"/>
<path id="Vector_4" d="M0 10.458H9.73462V19.9996H0V10.458Z" fill="#8D8C8C"/>
<path id="Vector_5" d="M10.7959 10.458H20.5305V19.9996H10.7959V10.458Z" fill="#8D8C8C"/>
</g>
<defs>
<clipPath id="clip0_7484_2111">
<rect width="95.9952" height="20" fill="white"/>
</clipPath>
</defs>
</svg>
