<svg xmlns="http://www.w3.org/2000/svg" viewBox="0 0 30 14" aria-hidden="true" role="img"><path fill="#fff" d="M7.4 12.8h6.8l3.1-11.6H7.4a5.8 5.8 0 000 11.6"/><path fill="#06f" d="M22.6 0H7.4c-3.9 0-7 3.1-7 7s3.1 7 7 7h15.2c3.9 0 7-3.1 7-7s-3.2-7-7-7m-21 7c0-3.2 2.6-5.8 5.8-5.8h9.9l-3.1 11.6H7.4A6 6 0 011.6 7"/><path fill="#fff" d="M24.6 4q.3.4 0 .8L22.5 7l2.2 2.2q.3.4 0 .8-.4.3-.8 0l-2.2-2.2-2.2 2.2q-.4.3-.8 0a1 1 0 010-.8L20.8 7l-2.2-2.2a1 1 0 010-.8q.4-.3.8 0l2.2 2.2L23.8 4q.4-.3.8 0"/><path fill="#06f" d="M12.7 4.1q.4.4.1.8L8.6 9.8l-.3.2q-.3.2-.7-.1L5.4 7.7a1 1 0 010-.8q.4-.3.8 0L8 8.6l3.8-4.5q.4-.3.9 0"/></svg>