<svg width="140" height="17" viewBox="0 0 140 17" fill="none" xmlns="http://www.w3.org/2000/svg">
<g clip-path="url(#clip0_9696_30974)">
<path d="M14.5002 13.0951L0 13.0732L13.1501 6.04806L5.96919 6.00835L15.2116 1.10159C16.2731 0.537997 17.3945 0.109596 18.5919 0.0225641C23.1663 -0.31289 27.1871 3.13206 27.6453 7.68308C28.1355 12.5518 24.3485 16.9026 19.4188 16.9871L7.22733 16.9997L14.5011 13.0951H14.5002Z" fill="white"/>
<path d="M76.3885 15.8208L76.3716 5.78927L72.6082 15.8157L69.2 15.8208L65.4332 5.79772L65.4146 15.8157L62.5034 15.8208V1.42668L66.8938 1.41992L70.902 12.2136L74.9076 1.42668L79.3064 1.4233V15.8157L76.3885 15.8208Z" fill="white"/>
<path d="M123.453 14.5085C121.703 16.1427 118.445 16.3446 116.092 16.021C114.961 15.8655 113.935 15.5072 112.978 14.9141C111.486 13.9821 110.588 12.4239 110.573 10.6326L113.74 10.641C113.751 11.7657 114.399 12.5955 115.352 13.0526C116.207 13.443 117.124 13.5604 118.083 13.5351C119.556 13.4962 121.266 13.1988 121.56 11.7471C121.818 10.4797 120.262 10.2549 118.905 10.0842L115.377 9.64059C114.348 9.51131 113.37 9.17163 112.508 8.63677C111.523 8.02416 110.99 7.0592 110.906 5.91764C110.724 3.43258 112.566 1.97838 114.866 1.42577C117.322 0.835982 120.164 0.924704 122.234 2.42791C123.444 3.31344 124.243 4.57667 124.433 6.11199L121.224 6.11706C121.076 5.02789 120.339 4.19475 119.231 3.90577C117.153 3.36329 113.605 3.88295 114.01 5.71485C114.161 6.39167 115.323 6.6984 116.191 6.79473L119.528 7.16313C122.138 7.45127 124.655 8.45763 124.665 11.3246C124.67 12.5245 124.346 13.6779 123.454 14.5102L123.453 14.5085Z" fill="white"/>
<path d="M42.8949 15.8888C40.3516 16.3891 37.2894 16.2716 35.1284 14.7937C33.742 13.8448 32.9226 12.3399 32.9058 10.6356L36.0659 10.634C36.0844 11.6555 36.616 12.4684 37.4818 12.9483C38.2623 13.3624 39.1239 13.5263 40.0285 13.5347C41.6047 13.5499 43.5961 13.299 43.8923 11.7333C44.1252 10.5004 42.6671 10.2588 41.3414 10.0965L37.9518 9.68082C36.9721 9.56084 36.038 9.27523 35.179 8.83838C33.9639 8.22071 33.2703 7.09352 33.2281 5.7441C33.1083 1.89525 37.7282 0.832271 41.0723 1.1466C42.2401 1.25645 43.3025 1.62485 44.2881 2.23746C45.6466 3.10271 46.5453 4.45044 46.7689 6.10912L43.5463 6.11419C43.4037 4.96588 42.6232 4.19695 41.5245 3.88516C39.6411 3.40183 35.8794 3.82263 36.3494 5.7348C36.5173 6.41669 37.7493 6.71074 38.626 6.80623L41.7515 7.1459C44.5049 7.44587 47.0566 8.45054 47.0026 11.4916C46.9571 14.0181 45.2888 15.4182 42.8958 15.8888H42.8949Z" fill="white"/>
<path d="M93.8633 8.4057V15.8186H90.8897V10.5502H84.3382V15.8195L81.3545 15.817V1.42285L89.3826 1.43468C90.4197 1.43637 91.3706 1.6924 92.2828 2.07602C93.9333 2.92521 94.4751 4.4901 94.1536 6.28313C93.962 7.35287 93.2287 8.01533 92.2119 8.36599L93.8624 8.4057H93.8633ZM90.92 7.13824C91.3774 6.39974 91.3512 5.46266 90.872 4.77401C90.4627 4.30928 89.9083 4.15211 89.2906 4.05832L84.3382 4.05241V7.92407L89.2636 7.91646C89.9049 7.82267 90.4914 7.67987 90.92 7.13824Z" fill="white"/>
<path d="M59.5407 9.8289L51.3067 9.83144L51.3033 13.1894H60.8115L60.8132 15.8198H48.3271V1.4248H60.7094L60.7111 4.0552L51.3042 4.05436L51.305 7.20104L59.5356 7.20019L59.5407 9.8289Z" fill="white"/>
<path d="M140 15.8062L137.026 15.824V9.83059L128.976 9.83144L128.977 15.8198L125.993 15.8181V1.42649L128.977 1.4248L128.976 7.20019L137.026 7.20104V1.42565L140 1.42649V15.8062Z" fill="white"/>
<path d="M106.373 1.43228L109.366 1.42383L109.32 10.2031C109.307 12.836 107.58 14.9797 105.115 15.7503C103.34 16.3055 101.463 16.2953 99.7015 15.7055C97.1177 14.8411 95.668 12.6045 95.5938 9.87862V1.42552H98.5674L98.5716 9.96143C98.6627 11.3041 99.2897 12.471 100.512 13.0278C101.613 13.5297 102.859 13.5559 104.007 13.1994C105.401 12.7667 106.223 11.5905 106.369 10.1254L106.374 1.43143L106.373 1.43228Z" fill="white"/>
</g>
<defs>
<clipPath id="clip0_9696_30974">
<rect width="140" height="17" fill="white"/>
</clipPath>
</defs>
</svg>
