<svg width="83" height="21" viewBox="0 0 83 21" fill="none" xmlns="http://www.w3.org/2000/svg">
<g clip-path="url(#clip0_9696_30999)">
<path fill-rule="evenodd" clip-rule="evenodd" d="M29.5496 19.5586C27.2114 19.5586 25.9496 18.3746 25.9496 16.1589V9.67036H25.1364C24.746 9.66385 24.3742 9.50541 24.103 9.22998C23.8318 8.95455 23.6835 8.58473 23.6907 8.20202C23.7089 7.43124 24.3499 6.81476 25.1364 6.81139H25.9496V4.88005C26.0178 4.01905 26.7504 3.35449 27.6315 3.35449C28.5125 3.35449 29.2452 4.01905 29.3134 4.88005V6.81139H30.6259C31.4121 6.8376 32.0355 7.46986 32.0355 8.24088C32.0355 9.01189 31.4121 9.64415 30.6259 9.67036H29.3134V15.2841C29.3134 16.263 29.9444 16.6483 30.469 16.6483H30.7575C31.7039 16.6483 32.2302 17.2667 32.2302 18.0654C32.2302 18.8641 31.7309 19.5586 29.5496 19.5586Z" fill="white"/>
<path d="M40.0591 19.5593C35.8821 19.5593 33.3584 16.573 33.3584 13.0179C33.3584 9.49088 35.8889 6.50293 40.0591 6.50293C44.2631 6.50293 46.7852 9.49088 46.7852 13.0179C46.7852 16.573 44.2631 19.5593 40.0591 19.5593ZM40.0591 9.41317C37.9824 9.41317 36.8269 11.0866 36.8269 13.0179C36.8269 14.9757 37.9824 16.6557 40.0591 16.6557C42.1358 16.6557 43.3167 14.9823 43.3167 13.0179C43.3167 11.0866 42.1341 9.41317 40.0591 9.41317Z" fill="white"/>
<path d="M58.5826 19.4055H58.3195C58.0563 19.4055 56.8737 19.1988 56.8737 17.9636C56.0083 18.9673 54.5119 19.5593 52.8553 19.5593C50.8309 19.5593 48.4404 18.2199 48.4404 15.4387C48.4404 12.5284 50.8309 11.4222 52.8553 11.4222C54.5423 11.4222 56.0336 11.9629 56.8737 12.9418V11.2668C56.8737 10.0051 55.7704 9.18167 54.0902 9.18167C53.084 9.16273 52.0953 9.44101 51.2526 9.98033C51.0703 10.0898 50.8624 10.1518 50.6487 10.1606C49.9466 10.1497 49.384 9.58722 49.3868 8.89891C49.3916 8.67218 49.4548 8.45032 49.5707 8.25403C50.3585 7.01884 53.1961 6.50293 54.6671 6.50293C57.5569 6.50293 60.2106 7.63561 60.2106 11.2155V17.7834C60.2171 18.6716 59.4888 19.3973 58.5826 19.4055ZM56.8737 14.7161C56.3221 13.9951 55.2727 13.6347 54.1948 13.6347C52.8806 13.6347 51.8043 14.2961 51.8043 15.5147C51.8043 16.6722 52.8806 17.3436 54.1948 17.3436C55.2727 17.3436 56.3221 16.9831 56.8737 16.2621V14.7161Z" fill="white"/>
<path fill-rule="evenodd" clip-rule="evenodd" d="M68.0939 19.5595C66.4389 19.5595 63.7853 19.0188 62.9975 17.906C62.8416 17.707 62.7584 17.4624 62.7613 17.2115C62.7748 16.4636 63.3901 15.8606 64.1531 15.8473C64.3948 15.8464 64.6317 15.913 64.8363 16.0391C65.835 16.6046 67.1475 17.0428 68.2508 17.0428C69.6965 17.0428 70.3798 16.4757 70.3798 15.7035C70.3798 13.6432 62.8389 15.3165 62.8389 10.4237C62.8389 8.33858 64.7047 6.50977 68.0416 6.50977C69.6965 6.50977 71.9554 7.02567 72.6656 8.02937C72.8009 8.21543 72.8751 8.43753 72.8782 8.66599C72.8545 9.35855 72.2727 9.90681 71.5657 9.90284C71.3456 9.90376 71.1288 9.85091 70.9348 9.74906C70.0609 9.2608 69.0727 9.00326 68.0669 9.00166C66.859 9.00166 66.0712 9.54236 66.0712 10.2385C66.0712 12.0921 73.585 10.5461 73.585 15.5679C73.585 17.8349 71.6146 19.5595 68.0939 19.5595Z" fill="white"/>
<path fill-rule="evenodd" clip-rule="evenodd" d="M80.3108 19.5586C77.9727 19.5586 76.7108 18.3746 76.7108 16.1589V9.67036H75.8977C75.5072 9.66385 75.1354 9.50541 74.8642 9.22998C74.593 8.95455 74.4447 8.58473 74.4519 8.20202C74.4711 7.43161 75.1115 6.81563 75.8977 6.81139H76.7108V4.88005C76.779 4.01905 77.5117 3.35449 78.3927 3.35449C79.2738 3.35449 80.0065 4.01905 80.0747 4.88005V6.81139H81.3888C82.175 6.8376 82.7985 7.46986 82.7985 8.24088C82.7985 9.01189 82.175 9.64415 81.3888 9.67036H80.0747V15.2841C80.0747 16.263 80.7056 16.6483 81.2303 16.6483H81.5204C82.4651 16.6483 82.9915 17.2667 82.9915 18.0654C82.9915 18.8641 82.4938 19.5586 80.3108 19.5586Z" fill="white"/>
<path d="M21.5445 14.44C21.5612 13.0631 21.5009 11.6864 21.364 10.316C21.2627 9.39006 20.9456 8.20613 19.9418 7.96471C20.0714 7.9973 20.2079 7.9927 20.3349 7.95148C21.5023 7.34298 21.4129 5.84487 20.9996 4.76179C20.458 3.3414 19.1675 2.33605 17.8921 1.66802C13.3086 -0.73293 7.17466 -0.531197 2.73112 2.20376C1.57553 2.91479 0.24281 4.2988 0.828196 5.84487C0.98714 6.22776 1.22161 6.57615 1.51818 6.87006C1.64807 7.00731 1.95848 7.32809 1.95848 7.32809C1.36297 8.13337 0.927729 8.85762 0.647688 9.83652C-0.194121 12.7765 -0.0541004 14.6665 0.177018 17.0311C0.320412 18.4928 0.806265 20.6689 2.49663 20.9103C3.8749 21.1005 5.36452 20.6474 6.74448 20.487C8.26277 20.3084 9.79456 20.0306 11.3263 20.0703C13.4891 20.1249 15.6349 20.6375 17.801 20.6573C18.9448 20.6689 20.846 20.7764 21.1868 19.2766C21.5107 17.8496 21.5242 16.3614 21.5242 14.9046C21.5428 14.7492 21.5445 14.5938 21.5445 14.44ZM19.0713 16.9087C18.5332 18.1175 17.0098 17.9819 15.9487 17.8926C14.3596 17.7586 12.7957 17.3767 11.1981 17.3287C9.78444 17.2874 8.38592 17.5536 7.00765 17.8546C5.9769 18.0811 4.53958 18.6714 3.60836 17.881C2.57592 17.0079 2.39035 15.5164 2.37685 14.2647C2.3973 13.1311 2.51013 12.0009 2.71425 10.8849C2.84177 10.1958 3.04483 9.52218 3.31988 8.87581C3.69102 7.9399 4.23592 7.3777 4.2646 7.40746C3.98625 7.1214 3.65391 6.96927 3.46665 6.58069C2.76149 5.10904 4.5244 3.86557 5.49104 3.43896C8.86503 1.93589 13.5886 2.08471 16.777 4.01439C17.7707 4.61463 19.7006 6.68487 17.8972 7.71502C19.0089 8.23754 19.2906 9.81668 19.4155 10.9378C19.6101 12.7371 19.5533 14.554 19.2468 16.3383C19.212 16.5347 19.1531 16.7262 19.0713 16.9087Z" fill="white"/>
</g>
<defs>
<clipPath id="clip0_9696_30999">
<rect width="83" height="21" fill="white"/>
</clipPath>
</defs>
</svg>
