<svg width="101" height="24" viewBox="0 0 101 24" fill="none" xmlns="http://www.w3.org/2000/svg">
<path d="M100.129 6.76593C100.129 6.64273 100.062 6.51953 99.8931 6.51953H99.5898V7.31313H99.7022V7.02353H99.8032L100.005 7.31313H100.14L99.9268 7.01073C100.073 7.00113 100.129 6.87793 100.129 6.76593ZM99.7038 6.91153V6.62193H99.9059C99.9958 6.62193 100.029 6.70033 100.029 6.76753C100.029 6.83473 99.9958 6.91313 99.8947 6.91313L99.7038 6.91153Z" fill="white"/>
<path d="M99.8368 6.23047C99.4549 6.23047 99.1533 6.53287 99.1533 6.91207C99.1533 7.29287 99.4566 7.59367 99.8368 7.59367C100.217 7.59367 100.52 7.29127 100.52 6.91207C100.522 6.53127 100.207 6.23047 99.8368 6.23047ZM99.8368 7.49287C99.5111 7.49287 99.2544 7.23527 99.2544 6.91207C99.2432 6.58727 99.5127 6.33127 99.8368 6.33127C100.161 6.33127 100.419 6.58887 100.419 6.91207C100.421 7.23687 100.162 7.49287 99.8368 7.49287Z" fill="white"/>
<path d="M86.9231 4.32033C87.9412 4.32033 88.7665 3.51802 88.7665 2.52833C88.7665 1.53863 87.9412 0.736328 86.9231 0.736328C85.9049 0.736328 85.0796 1.53863 85.0796 2.52833C85.0796 3.51802 85.9049 4.32033 86.9231 4.32033Z" fill="white"/>
<path d="M8.52755 17.8417L3.11432 12.4417L1.2468 14.3041C1.05908 14.4913 1.03662 14.6305 1.10722 14.8625L1.99445 18.3073C2.0875 18.6801 2.27361 18.8657 2.64744 18.9585L6.1017 19.8433C6.33434 19.9137 6.47553 19.8897 6.66164 19.7041L8.52755 17.8417ZM9.41478 17.8417L11.2823 19.7041C11.47 19.8913 11.6096 19.9137 11.8422 19.8433L15.2965 18.9585C15.6703 18.8657 15.8564 18.6801 15.9495 18.3073L16.8367 14.8625C16.9073 14.6305 16.8833 14.4897 16.6971 14.3041L14.8296 12.4417L9.41478 17.8417ZM9.41478 6.15852L14.8296 11.5585L16.6971 9.69612C16.8849 9.50892 16.9073 9.36972 16.8367 9.13772L15.9495 5.69292C15.8564 5.32012 15.6703 5.13452 15.2965 5.04172L11.8422 4.15692C11.6096 4.08652 11.4684 4.11052 11.2823 4.29612L9.41478 6.15852ZM8.52755 6.15852L6.66164 4.29612C6.47392 4.10892 6.33434 4.08652 6.1017 4.15692L2.64744 5.04172C2.27361 5.13452 2.0875 5.32012 1.99445 5.69292L1.10722 9.13612C1.03662 9.36812 1.06069 9.50892 1.2468 9.69452L3.11432 11.5569L8.52755 6.15852Z" fill="white"/>
<path d="M70.1685 8.55505H67.2966V16.9775C67.2966 17.4159 66.9405 17.7711 66.5008 17.7711H64.2627V8.55505H61.6508L58.1853 18.3535C56.7846 22.2863 55.408 23.3103 52.9581 23.3103C52.4913 23.3103 51.7452 23.2175 50.9976 23.0783L51.6586 20.9135H52.7255C53.9031 20.9135 54.524 20.5487 54.9315 19.5247C55.3375 18.4991 55.3471 18.3407 55.3519 18.3311L51.1965 6.22865H53.8293C54.1791 6.22865 54.4871 6.45585 54.5898 6.78865L56.937 14.3967L59.411 6.87985C59.5747 6.41425 59.7848 6.22865 60.2517 6.22865H64.2643V5.90225C64.2643 2.48145 65.8511 0.689453 68.8625 0.689453C69.3294 0.689453 70.3851 0.772653 71.0156 0.913453L70.3498 3.08625H69.469C68.2705 3.08625 67.2982 4.05585 67.2982 5.25105V6.22865H70.8776L70.1685 8.55505Z" fill="white"/>
<path d="M32.1456 14.3037L29.8128 6.74052C29.6957 6.34532 29.5336 6.22852 29.1358 6.22852H26.9185C26.5222 6.22852 26.3585 6.34532 26.2414 6.74052L23.8846 14.3037L21.7844 6.22852H18.4473L21.8085 17.2605C21.9256 17.6557 22.0876 17.7725 22.4855 17.7725H24.7959C25.1922 17.7725 25.3558 17.6557 25.4729 17.2605L27.9228 9.48772L30.3968 17.2605C30.5139 17.6557 30.676 17.7725 31.0739 17.7725H33.1516C33.5479 17.7725 33.7115 17.6557 33.8286 17.2605L37.1898 6.22852H34.2698L32.1456 14.3037Z" fill="white"/>
<path d="M88.4392 6.22852H85.4053V17.7725H88.4392V6.22852Z" fill="white"/>
<path d="M46.8325 6.88027L46.7619 8.20827C46.0383 6.48507 44.5687 5.99707 42.8408 5.99707C39.6673 5.99707 37.6826 8.85947 37.6826 12.0019C37.6826 15.1443 39.6657 18.0067 42.8408 18.0067C44.5687 18.0067 46.0383 17.5171 46.7619 15.7955L46.8325 17.1235C46.8325 17.5651 47.0427 17.7747 47.4165 17.7747H49.8439V6.22907H47.4165C47.0427 6.22907 46.8325 6.43707 46.8325 6.88027ZM43.7023 15.5907C41.7883 15.5907 40.6941 14.0003 40.6941 12.0003C40.6941 10.0003 41.7867 8.40987 43.7023 8.40987C45.618 8.40987 46.7106 10.0003 46.7106 12.0003C46.7106 14.0003 45.6164 15.5907 43.7023 15.5907Z" fill="white"/>
<path d="M79.8413 6.88027L79.7707 8.20827C79.0471 6.48507 77.5775 5.99707 75.8495 5.99707C72.676 5.99707 70.6914 8.85947 70.6914 12.0019C70.6914 15.1443 72.6744 18.0067 75.8495 18.0067C77.5775 18.0067 79.0471 17.5171 79.7707 15.7955L79.8413 17.1235C79.8413 17.5651 80.0515 17.7747 80.4253 17.7747H82.8527V6.22907H80.4253C80.0531 6.22907 79.8413 6.43707 79.8413 6.88027ZM76.7127 15.5907C74.7987 15.5907 73.7045 14.0003 73.7045 12.0003C73.7045 10.0003 74.7971 8.40987 76.7127 8.40987C78.6284 8.40987 79.721 10.0003 79.721 12.0003C79.721 14.0003 78.6268 15.5907 76.7127 15.5907Z" fill="white"/>
<path d="M97.7047 6.1123C95.9078 6.1123 94.6243 6.6627 94.0643 8.8035L94.0178 6.8803C94.0178 6.4387 93.8076 6.2291 93.4338 6.2291H91.0063V17.7731H94.0403V12.0003C94.0403 9.9763 95.2067 8.6723 97.2138 8.6723H97.7609L98.4973 6.2579C98.2149 6.1379 97.9149 6.1123 97.7047 6.1123Z" fill="white"/>
</svg>
