<svg width="81" height="22" viewBox="0 0 81 22" fill="none" xmlns="http://www.w3.org/2000/svg">
<g clip-path="url(#clip0_9696_31017)">
<path d="M19.0211 15.0186L19.0097 14.9825L26.2117 8.39877V5.22656H14.6572V8.39877H21.5588L21.5701 8.42916L14.4385 15.0186V18.1909H26.3277V15.0186H19.0211Z" fill="white"/>
<path d="M33.42 4.9248C32.0872 4.9248 31.001 5.12552 30.1614 5.52696C29.3794 5.87681 28.7205 6.45322 28.2705 7.18144C27.8401 7.91444 27.5697 8.73009 27.4773 9.57483L30.9832 10.0668C31.11 9.32094 31.3637 8.79224 31.7441 8.48072C32.1766 8.15489 32.7096 7.99026 33.2507 8.01534C33.9622 8.01534 34.4783 8.2053 34.7993 8.58518C35.1169 8.96509 35.2786 9.49126 35.2786 10.1846V10.5303H31.9077C30.1918 10.5303 28.9592 10.9102 28.2097 11.67C27.4602 12.4298 27.0861 13.4328 27.0874 14.6789C27.0874 15.9553 27.4615 16.9051 28.2097 17.5281C28.9579 18.1512 29.8989 18.4608 31.0328 18.4569C32.4391 18.4569 33.5209 17.9739 34.2779 17.0077C34.7251 16.4139 35.0444 15.7342 35.2158 15.0113H35.3433L35.8265 18.1834H39.0033V10.1504C39.0033 8.49021 38.5651 7.20425 37.6888 6.29248C36.8124 5.38071 35.3896 4.9248 33.42 4.9248ZM34.531 14.827C34.0268 15.2468 33.3669 15.4558 32.545 15.4558C31.8677 15.4558 31.3973 15.3374 31.1335 15.1005C31.0051 14.9885 30.9027 14.8496 30.834 14.6936C30.7653 14.5377 30.7318 14.3686 30.736 14.1983C30.7284 14.0377 30.7538 13.8772 30.8103 13.7266C30.8669 13.5761 30.9535 13.4386 31.065 13.3226C31.1855 13.2097 31.3278 13.1224 31.4831 13.0659C31.6385 13.0094 31.8036 12.9849 31.9686 12.994H35.2843V13.2124C35.2911 13.5212 35.2266 13.8274 35.096 14.1073C34.9653 14.3873 34.772 14.6335 34.531 14.827Z" fill="white"/>
<path d="M58.2112 5.22656H54.458V18.1926H58.2112V5.22656Z" fill="white"/>
<path d="M80.3695 5.22656C79.3093 5.22656 78.4736 5.60013 77.8624 6.34728C77.4235 6.88421 77.0899 7.67759 76.8617 8.72738H76.7514L76.2607 5.22656H73.0552V18.1909H76.8085V11.5425C76.8085 10.7042 77.0051 10.0615 77.3982 9.61446C77.7912 9.16744 78.5167 8.94393 79.5744 8.94393H80.9992V5.22656H80.3695Z" fill="white"/>
<path d="M69.3347 5.65087C68.4585 5.13041 67.3533 4.87081 66.0191 4.87207C63.9191 4.87207 62.2754 5.46916 61.0885 6.66333C59.9013 7.85749 59.3079 9.50374 59.3079 11.6021C59.2776 12.8707 59.555 14.1278 60.1163 15.2663C60.6302 16.2807 61.4304 17.1227 62.4181 17.6881C63.4123 18.2619 64.5949 18.5493 65.9658 18.5505C67.1516 18.5505 68.1421 18.3682 68.9372 18.0035C69.6848 17.676 70.3357 17.1625 70.8281 16.5124C71.2969 15.8741 71.645 15.1557 71.8553 14.3925L68.6215 13.4883C68.4854 13.9846 68.2233 14.4373 67.8605 14.8028C67.4952 15.1675 66.8833 15.3498 66.0247 15.3498C65.004 15.3498 64.2431 15.0579 63.742 14.4742C63.3788 14.0525 63.1505 13.4503 63.0496 12.6696H71.9049C71.941 12.3049 71.9599 11.9991 71.9599 11.7521V10.9448C71.9813 9.86032 71.757 8.78499 71.3037 7.79924C70.8794 6.90125 70.193 6.15238 69.3347 5.65087ZM65.9107 7.96259C67.4325 7.96259 68.2955 8.71036 68.4996 10.2059H63.1162C63.2017 9.70691 63.4088 9.23657 63.7193 8.83638C64.2126 8.25259 64.9431 7.96133 65.9107 7.96259Z" fill="white"/>
<path d="M56.3748 0.00121627C56.0925 -0.00837228 55.8111 0.038812 55.5473 0.139968C55.2836 0.241125 55.043 0.394183 54.8397 0.590055C54.6393 0.787802 54.4822 1.02501 54.3784 1.2866C54.2745 1.54819 54.2262 1.82846 54.2368 2.10965C54.2266 2.39266 54.275 2.67471 54.3788 2.93821C54.4828 3.20173 54.64 3.44103 54.8405 3.64118C55.0413 3.84133 55.281 3.99805 55.5449 4.10156C55.809 4.20507 56.0915 4.25315 56.3748 4.2428C56.6564 4.25343 56.9373 4.20536 57.1993 4.10169C57.4612 3.99803 57.6987 3.84101 57.8967 3.64064C58.093 3.43821 58.2463 3.19823 58.3472 2.93512C58.4483 2.67201 58.4949 2.39124 58.4844 2.10965C58.4974 1.82974 58.4518 1.55019 58.3504 1.28887C58.2492 1.02755 58.0945 0.7902 57.8962 0.591968C57.6977 0.393737 57.4602 0.238983 57.1986 0.137592C56.937 0.0362008 56.657 -0.00959543 56.3768 0.00311763L56.3748 0.00121627Z" fill="white"/>
<path d="M48.6227 4.87207C47.3445 4.87207 46.3172 5.27286 45.5411 6.07445C44.9665 6.66837 44.545 7.55483 44.276 8.73378H44.1562L43.6655 5.23297H40.46V21.9184H44.2132V15.0459H44.3502C44.4648 15.5041 44.6253 15.9496 44.8296 16.3755C45.1471 17.0693 45.6678 17.6509 46.3229 18.0433C47.0022 18.4134 47.7673 18.5977 48.5408 18.5771C50.1122 18.5771 51.3088 17.9662 52.1306 16.744C52.9523 15.522 53.3633 13.8169 53.3633 11.6287C53.3633 9.51514 52.9657 7.86066 52.1705 6.66522C51.3754 5.46979 50.1928 4.87207 48.6227 4.87207ZM49.0032 14.2671C48.5656 14.9003 47.8809 15.2169 46.9487 15.2169C46.5644 15.2346 46.1813 15.1606 45.8314 15.001C45.4813 14.8415 45.1745 14.601 44.9362 14.2994C44.4503 13.6903 44.2082 12.8564 44.2095 11.7977V11.5508C44.2095 10.4756 44.4516 9.65252 44.9362 9.0814C45.4206 8.51029 46.0914 8.22788 46.9487 8.23422C47.8974 8.23422 48.5865 8.53497 49.0165 9.13648C49.4464 9.738 49.6614 10.577 49.6614 11.6533C49.664 12.7665 49.4458 13.6377 49.0069 14.2671H49.0032Z" fill="white"/>
<path d="M12.985 15.0186H0V18.1946H12.985V15.0186Z" fill="white"/>
</g>
<defs>
<clipPath id="clip0_9696_31017">
<rect width="81" height="22" fill="white"/>
</clipPath>
</defs>
</svg>
